<svg xmlns="http://www.w3.org/2000/svg" viewBox="0 0 64 64" fill="none">
  <defs>
    <linearGradient id="bg" x1="0" y1="0" x2="1" y2="1">
      <stop offset="0%" stop-color="#0f172a"/>
      <stop offset="100%" stop-color="#0c2340"/>
    </linearGradient>
    <linearGradient id="bell" x1="0" y1="0" x2="0" y2="1">
      <stop offset="0%" stop-color="#38bdf8"/>
      <stop offset="100%" stop-color="#0284c7"/>
    </linearGradient>
  </defs>

  <!-- Background -->
  <rect width="64" height="64" rx="14" fill="url(#bg)"/>
  <rect width="64" height="64" rx="14" fill="none" stroke="#0ea5e9" stroke-width="1" opacity="0.3"/>

  <!-- Bell -->
  <path d="M32 13 C22 13 15 20 15 29 L15 39 L11 43 L11 45 L53 45 L53 43 L49 39 L49 29 C49 20 42 13 32 13 Z"
        fill="url(#bell)" opacity="0.95"/>
  <ellipse cx="32" cy="47.5" rx="5" ry="3" fill="url(#bell)"/>

  <!-- Clock dot top-right -->
  <circle cx="46" cy="18" r="9" fill="#0f172a" stroke="#0ea5e9" stroke-width="1.5"/>
  <line x1="46" y1="13" x2="46" y2="15" stroke="#7dd3fc" stroke-width="1.2" stroke-linecap="round"/>
  <line x1="46" y1="21" x2="46" y2="23" stroke="#7dd3fc" stroke-width="1.2" stroke-linecap="round"/>
  <line x1="41" y1="18" x2="43" y2="18" stroke="#7dd3fc" stroke-width="1.2" stroke-linecap="round"/>
  <line x1="49" y1="18" x2="51" y2="18" stroke="#7dd3fc" stroke-width="1.2" stroke-linecap="round"/>
  <line x1="46" y1="18" x2="46" y2="14.5" stroke="white" stroke-width="1.5" stroke-linecap="round"/>
  <line x1="46" y1="18" x2="49" y2="19.5" stroke="#38bdf8" stroke-width="1.5" stroke-linecap="round"/>
  <circle cx="46" cy="18" r="1.2" fill="white"/>
</svg>
